<?xml version="1.0" encoding="utf-8"?>
<!-- Generator: Adobe Illustrator 18.1.0, SVG Export Plug-In . SVG Version: 6.00 Build 0)  -->
<!DOCTYPE svg PUBLIC "-//W3C//DTD SVG 1.1//EN" "http://www.w3.org/Graphics/SVG/1.1/DTD/svg11.dtd">
<svg version="1.1" id="Layer_1" xmlns="http://www.w3.org/2000/svg" xmlns:xlink="http://www.w3.org/1999/xlink" x="0px" y="0px"
	 viewBox="0 0 264.7 106" style="enable-background:new 0 0 264.7 106;" xml:space="preserve">
<style type="text/css">
	.st0{fill:#F5EA14;}
	.st1{fill:none;stroke:#29A9E1;stroke-linejoin:bevel;stroke-miterlimit:10;}
</style>
<g>
	<g>
		<g>
			<path class="st0" d="M124.4,48.4c-5.4,0-9-3.6-9-10.1V25.8h4.5v12.5c0,3.6,1.7,5.8,4.6,5.8c2.8,0,4.6-2.2,4.6-5.8V25.8h4.5v12.5
				C133.5,44.7,130.1,48.4,124.4,48.4z"/>
			<path class="st0" d="M148,40.2h-4.9v7.9h-4.5V25.8h9.7c4.2,0,7.7,2.3,7.7,7.1C156.1,38,152.6,40.2,148,40.2z M148.2,30.1h-5.1
				v5.7h5.2c2.1,0,3.2-1,3.2-2.9S150.2,30.1,148.2,30.1z"/>
			<path class="st0" d="M167.3,48.4c-3.7,0-7-1.6-8.7-4l3.2-2.9c1.6,1.8,3.6,2.5,5.7,2.5c2.6,0,3.9-0.7,3.9-2.4c0-1.4-0.8-2.1-5-3
				c-4.1-1-7-2.3-7-6.7c0-4,3.6-6.5,8-6.5c3.5,0,6,1.3,8.1,3.5l-3.2,3.1c-1.4-1.5-3-2.3-5.1-2.3c-2.4,0-3.2,1-3.2,2
				c0,1.4,1,1.8,4.5,2.7c3.5,0.8,7.5,2,7.5,6.9C176,45.5,173.3,48.4,167.3,48.4z"/>
			<path class="st0" d="M189.7,30.2v17.9h-4.5V30.2h-6.4v-4.4h17.3v4.4H189.7z"/>
			<path class="st0" d="M211.9,48.1l-1.8-5H202l-1.8,5h-4.8l8.5-22.3h4.3l8.5,22.3H211.9z M207.2,34.8c-0.4-1.3-0.9-2.6-1.1-3.5
				c-0.2,0.8-0.7,2.2-1.1,3.5l-1.4,4h5.1L207.2,34.8z"/>
			<path class="st0" d="M233.2,48.1l-4-8h-4.5v8h-4.5V25.8h10.4c4.2,0,7.7,2.3,7.7,7.1c0,3.3-1.4,5.4-4.3,6.6l4.3,8.7H233.2z
				 M230.6,30.1h-5.8v5.7h5.8c2.1,0,3.2-1,3.2-2.9C233.8,30.9,232.6,30.1,230.6,30.1z"/>
			<path class="st0" d="M252.1,30.2v17.9h-4.5V30.2h-6.4v-4.4h17.3v4.4H252.1z"/>
			<path class="st0" d="M125.7,78.9h-10.1V56.6h10.2c4.3,0,7.1,2.1,7.1,5.9c0,1.9-0.9,3.4-2.4,4.3c1.8,0.8,3.1,2.4,3.1,4.9
				C133.6,76.4,130.5,78.9,125.7,78.9z M125.6,60.7h-5.7V65h5.9c1.8,0,2.5-0.9,2.5-2.1C128.3,61.5,127.5,60.7,125.6,60.7z
				 M125.8,68.9h-5.9v5.8h5.9c2.2,0,3.2-1.1,3.2-2.9C129,69.9,128,68.9,125.8,68.9z"/>
			<path class="st0" d="M146.5,79.3c-5.4,0-9-3.6-9-10.1V56.6h4.5v12.5c0,3.6,1.7,5.8,4.6,5.8c2.8,0,4.6-2.2,4.6-5.8V56.6h4.5v12.5
				C155.6,75.6,152.2,79.3,146.5,79.3z"/>
			<path class="st0" d="M173.7,78.9l-4-8h-4.5v8h-4.5V56.6h10.4c4.2,0,7.7,2.3,7.7,7.1c0,3.3-1.4,5.4-4.3,6.6l4.3,8.7H173.7z
				 M171,61h-5.8v5.7h5.8c2.1,0,3.2-1,3.2-2.9C174.2,61.8,173,61,171,61z"/>
			<path class="st0" d="M183.1,78.9V56.6h15.5V61h-11v3.9h6.4v4.3h-6.4v5.4h11.5v4.4H183.1z"/>
			<path class="st0" d="M218.5,78.9l-1.8-5h-8.2l-1.8,5H202l8.5-22.3h4.3l8.5,22.3H218.5z M213.8,65.7c-0.4-1.3-0.9-2.6-1.1-3.5
				c-0.2,0.8-0.7,2.2-1.1,3.5l-1.4,4h5.1L213.8,65.7z"/>
			<path class="st0" d="M234.5,79.3c-5.4,0-9-3.6-9-10.1V56.6h4.5v12.5c0,3.6,1.7,5.8,4.6,5.8s4.6-2.2,4.6-5.8V56.6h4.5v12.5
				C243.6,75.6,240.2,79.3,234.5,79.3z"/>
		</g>
	</g>
</g>
</svg>
