<?xml version="1.0" encoding="utf-8"?>
<!-- Generator: Adobe Illustrator 18.1.0, SVG Export Plug-In . SVG Version: 6.00 Build 0)  -->
<!DOCTYPE svg PUBLIC "-//W3C//DTD SVG 1.1//EN" "http://www.w3.org/Graphics/SVG/1.1/DTD/svg11.dtd">
<svg version="1.1" id="Layer_1" xmlns="http://www.w3.org/2000/svg" xmlns:xlink="http://www.w3.org/1999/xlink" x="0px" y="0px"
	 viewBox="0 0 264.7 106" style="enable-background:new 0 0 264.7 106;" xml:space="preserve">
<style type="text/css">
	.st0{fill:#F5EA14;}
	.st1{fill:none;stroke:#29A9E1;stroke-linejoin:bevel;stroke-miterlimit:10;}
</style>
<g>
	<g>
		<g>
			<g>
				<path class="st0" d="M39.9,70.3c-7.3,0-12.3-5-12.3-13.8V39.4h6.1v17c0,4.9,2.3,8,6.2,8c3.9,0,6.3-3,6.3-7.9V39.4h6.1v17
					C52.2,65.3,47.6,70.3,39.9,70.3z"/>
				<path class="st0" d="M70.6,69.9H56.8V39.4h14c5.9,0,9.7,2.8,9.7,8c0,2.6-1.2,4.7-3.2,5.9c2.4,1.1,4.3,3.3,4.3,6.7
					C81.4,66.4,77.1,69.9,70.6,69.9z M70.5,45h-7.7v5.8h8c2.5,0,3.4-1.2,3.4-2.9C74.2,46,73.1,45,70.5,45z M70.8,56.2h-8.1v7.9h8.1
					c3,0,4.3-1.6,4.3-4C75.2,57.5,73.8,56.2,70.8,56.2z"/>
			</g>
		</g>
		<g>
			<circle class="st1" cx="54.1" cy="52.8" r="36.8"/>
			<circle class="st1" cx="53.9" cy="52.7" r="46"/>
			<g>
				<g>
					<polyline class="st1" points="62.1,16 55.9,7 48.8,16 47.8,7.1 					"/>
				</g>
				<g>
					<polyline class="st1" points="49.1,15.5 40.2,9.1 36.6,20.1 32.6,12 					"/>
				</g>
				<g>
					<polyline class="st1" points="36.7,19.5 26.1,16.5 26.5,28 20,21.8 					"/>
				</g>
				<g>
					<polyline class="st1" points="26.3,27.4 15.5,28.2 19.7,38.9 11.5,35.3 					"/>
				</g>
				<g>
					<polyline class="st1" points="19.4,38.4 9.4,42.9 17.1,51.5 8.1,50.9 					"/>
				</g>
				<g>
					<polyline class="st1" points="16.6,51.1 8.8,58.7 18.9,64.2 10.3,66.8 					"/>
				</g>
				<g>
					<polyline class="st1" points="18.3,64 13.6,73.9 25,75.6 17.7,80.9 					"/>
				</g>
				<g>
					<polyline class="st1" points="24.4,75.6 23.3,86.4 34.6,84.1 29.6,91.6 					"/>
				</g>
				<g>
					<polyline class="st1" points="34,84.3 36.7,94.9 46.5,88.9 44.4,97.6 					"/>
				</g>
				<g>
					<polyline class="st1" points="46,89.3 52.2,98.3 59.3,89.3 60.3,98.2 					"/>
				</g>
				<g>
					<polyline class="st1" points="59,89.8 67.9,96.2 71.6,85.3 75.5,93.3 					"/>
				</g>
				<g>
					<polyline class="st1" points="71.5,85.9 82,88.9 81.7,77.3 88.1,83.5 					"/>
				</g>
				<g>
					<polyline class="st1" points="81.8,77.9 92.7,77.1 88.4,66.4 96.6,70 					"/>
				</g>
				<g>
					<polyline class="st1" points="88.7,66.9 98.7,62.5 91,53.8 100,54.4 					"/>
				</g>
				<g>
					<polyline class="st1" points="91.5,54.2 99.3,46.6 89.2,41.1 97.8,38.6 					"/>
				</g>
				<g>
					<polyline class="st1" points="89.8,41.3 94.5,31.5 83.1,29.8 90.4,24.5 					"/>
				</g>
				<g>
					<polyline class="st1" points="83.8,29.8 84.8,18.9 73.5,21.2 78.5,13.7 					"/>
				</g>
				<g>
					<polyline class="st1" points="74.1,21 71.4,10.4 61.6,16.4 63.7,7.7 					"/>
				</g>
				<g>
					<polyline class="st1" points="62.1,16 55.9,7 48.8,16 47.8,7.1 					"/>
				</g>
			</g>
		</g>
	</g>
</g>
</svg>
