<?xml version="1.0" encoding="utf-8"?>
<!-- Generator: Adobe Illustrator 18.1.0, SVG Export Plug-In . SVG Version: 6.00 Build 0)  -->
<!DOCTYPE svg PUBLIC "-//W3C//DTD SVG 1.1//EN" "http://www.w3.org/Graphics/SVG/1.1/DTD/svg11.dtd">
<svg version="1.1" id="Layer_1" xmlns="http://www.w3.org/2000/svg" xmlns:xlink="http://www.w3.org/1999/xlink" x="0px" y="0px"
	 viewBox="0 0 264.7 106" style="enable-background:new 0 0 264.7 106;" xml:space="preserve">
<style type="text/css">
	.st0{fill:#F5EA14;}
	.st1{fill:none;stroke:#29A9E1;stroke-linejoin:bevel;stroke-miterlimit:10;}
</style>
<g>
	<g>
		<g>
			<g>
				<path class="st0" d="M39.9,70.3c-7.3,0-12.3-5-12.3-13.8V39.4h6.1v17c0,4.9,2.3,8,6.2,8c3.9,0,6.3-3,6.3-7.9V39.4h6.1v17
					C52.2,65.3,47.6,70.3,39.9,70.3z"/>
				<path class="st0" d="M70.6,69.9H56.8V39.4h14c5.9,0,9.7,2.8,9.7,8c0,2.6-1.2,4.7-3.2,5.9c2.4,1.1,4.3,3.3,4.3,6.7
					C81.4,66.4,77.1,69.9,70.6,69.9z M70.5,45h-7.7v5.8h8c2.5,0,3.4-1.2,3.4-2.9C74.2,46,73.1,45,70.5,45z M70.8,56.2h-8.1v7.9h8.1
					c3,0,4.3-1.6,4.3-4C75.2,57.5,73.8,56.2,70.8,56.2z"/>
			</g>
		</g>
		<g>
			<circle class="st1" cx="54.1" cy="52.8" r="36.8"/>
			<circle class="st1" cx="53.9" cy="52.7" r="46"/>
			<g>
				<g>
					<polyline class="st1" points="62.1,16 55.9,7 48.8,16 47.8,7.1 					"/>
				</g>
				<g>
					<polyline class="st1" points="49.1,15.5 40.2,9.1 36.6,20.1 32.6,12 					"/>
				</g>
				<g>
					<polyline class="st1" points="36.7,19.5 26.1,16.5 26.5,28 20,21.8 					"/>
				</g>
				<g>
					<polyline class="st1" points="26.3,27.4 15.5,28.2 19.7,38.9 11.5,35.3 					"/>
				</g>
				<g>
					<polyline class="st1" points="19.4,38.4 9.4,42.9 17.1,51.5 8.1,50.9 					"/>
				</g>
				<g>
					<polyline class="st1" points="16.6,51.1 8.8,58.7 18.9,64.2 10.3,66.8 					"/>
				</g>
				<g>
					<polyline class="st1" points="18.3,64 13.6,73.9 25,75.6 17.7,80.9 					"/>
				</g>
				<g>
					<polyline class="st1" points="24.4,75.6 23.3,86.4 34.6,84.1 29.6,91.6 					"/>
				</g>
				<g>
					<polyline class="st1" points="34,84.3 36.7,94.9 46.5,88.9 44.4,97.6 					"/>
				</g>
				<g>
					<polyline class="st1" points="46,89.3 52.2,98.3 59.3,89.3 60.3,98.2 					"/>
				</g>
				<g>
					<polyline class="st1" points="59,89.8 67.9,96.2 71.6,85.3 75.5,93.3 					"/>
				</g>
				<g>
					<polyline class="st1" points="71.5,85.9 82,88.9 81.7,77.3 88.1,83.5 					"/>
				</g>
				<g>
					<polyline class="st1" points="81.8,77.9 92.7,77.1 88.4,66.4 96.6,70 					"/>
				</g>
				<g>
					<polyline class="st1" points="88.7,66.9 98.7,62.5 91,53.8 100,54.4 					"/>
				</g>
				<g>
					<polyline class="st1" points="91.5,54.2 99.3,46.6 89.2,41.1 97.8,38.6 					"/>
				</g>
				<g>
					<polyline class="st1" points="89.8,41.3 94.5,31.5 83.1,29.8 90.4,24.5 					"/>
				</g>
				<g>
					<polyline class="st1" points="83.8,29.8 84.8,18.9 73.5,21.2 78.5,13.7 					"/>
				</g>
				<g>
					<polyline class="st1" points="74.1,21 71.4,10.4 61.6,16.4 63.7,7.7 					"/>
				</g>
				<g>
					<polyline class="st1" points="62.1,16 55.9,7 48.8,16 47.8,7.1 					"/>
				</g>
			</g>
		</g>
	</g>
	<g>
		<g>
			<path class="st0" d="M124.4,48.4c-5.4,0-9-3.6-9-10.1V25.8h4.5v12.5c0,3.6,1.7,5.8,4.6,5.8c2.8,0,4.6-2.2,4.6-5.8V25.8h4.5v12.5
				C133.5,44.7,130.1,48.4,124.4,48.4z"/>
			<path class="st0" d="M148,40.2h-4.9v7.9h-4.5V25.8h9.7c4.2,0,7.7,2.3,7.7,7.1C156.1,38,152.6,40.2,148,40.2z M148.2,30.1h-5.1
				v5.7h5.2c2.1,0,3.2-1,3.2-2.9S150.2,30.1,148.2,30.1z"/>
			<path class="st0" d="M167.3,48.4c-3.7,0-7-1.6-8.7-4l3.2-2.9c1.6,1.8,3.6,2.5,5.7,2.5c2.6,0,3.9-0.7,3.9-2.4c0-1.4-0.8-2.1-5-3
				c-4.1-1-7-2.3-7-6.7c0-4,3.6-6.5,8-6.5c3.5,0,6,1.3,8.1,3.5l-3.2,3.1c-1.4-1.5-3-2.3-5.1-2.3c-2.4,0-3.2,1-3.2,2
				c0,1.4,1,1.8,4.5,2.7c3.5,0.8,7.5,2,7.5,6.9C176,45.5,173.3,48.4,167.3,48.4z"/>
			<path class="st0" d="M189.7,30.2v17.9h-4.5V30.2h-6.4v-4.4h17.3v4.4H189.7z"/>
			<path class="st0" d="M211.9,48.1l-1.8-5H202l-1.8,5h-4.8l8.5-22.3h4.3l8.5,22.3H211.9z M207.2,34.8c-0.4-1.3-0.9-2.6-1.1-3.5
				c-0.2,0.8-0.7,2.2-1.1,3.5l-1.4,4h5.1L207.2,34.8z"/>
			<path class="st0" d="M233.2,48.1l-4-8h-4.5v8h-4.5V25.8h10.4c4.2,0,7.7,2.3,7.7,7.1c0,3.3-1.4,5.4-4.3,6.6l4.3,8.7H233.2z
				 M230.6,30.1h-5.8v5.7h5.8c2.1,0,3.2-1,3.2-2.9C233.8,30.9,232.6,30.1,230.6,30.1z"/>
			<path class="st0" d="M252.1,30.2v17.9h-4.5V30.2h-6.4v-4.4h17.3v4.4H252.1z"/>
			<path class="st0" d="M125.7,78.9h-10.1V56.6h10.2c4.3,0,7.1,2.1,7.1,5.9c0,1.9-0.9,3.4-2.4,4.3c1.8,0.8,3.1,2.4,3.1,4.9
				C133.6,76.4,130.5,78.9,125.7,78.9z M125.6,60.7h-5.7V65h5.9c1.8,0,2.5-0.9,2.5-2.1C128.3,61.5,127.5,60.7,125.6,60.7z
				 M125.8,68.9h-5.9v5.8h5.9c2.2,0,3.2-1.1,3.2-2.9C129,69.9,128,68.9,125.8,68.9z"/>
			<path class="st0" d="M146.5,79.3c-5.4,0-9-3.6-9-10.1V56.6h4.5v12.5c0,3.6,1.7,5.8,4.6,5.8c2.8,0,4.6-2.2,4.6-5.8V56.6h4.5v12.5
				C155.6,75.6,152.2,79.3,146.5,79.3z"/>
			<path class="st0" d="M173.7,78.9l-4-8h-4.5v8h-4.5V56.6h10.4c4.2,0,7.7,2.3,7.7,7.1c0,3.3-1.4,5.4-4.3,6.6l4.3,8.7H173.7z
				 M171,61h-5.8v5.7h5.8c2.1,0,3.2-1,3.2-2.9C174.2,61.8,173,61,171,61z"/>
			<path class="st0" d="M183.1,78.9V56.6h15.5V61h-11v3.9h6.4v4.3h-6.4v5.4h11.5v4.4H183.1z"/>
			<path class="st0" d="M218.5,78.9l-1.8-5h-8.2l-1.8,5H202l8.5-22.3h4.3l8.5,22.3H218.5z M213.8,65.7c-0.4-1.3-0.9-2.6-1.1-3.5
				c-0.2,0.8-0.7,2.2-1.1,3.5l-1.4,4h5.1L213.8,65.7z"/>
			<path class="st0" d="M234.5,79.3c-5.4,0-9-3.6-9-10.1V56.6h4.5v12.5c0,3.6,1.7,5.8,4.6,5.8s4.6-2.2,4.6-5.8V56.6h4.5v12.5
				C243.6,75.6,240.2,79.3,234.5,79.3z"/>
		</g>
	</g>
</g>
</svg>
